<?xml version="1.0" encoding="utf-8"?>
<!-- Generator: Adobe Illustrator 16.0.4, SVG Export Plug-In . SVG Version: 6.00 Build 0)  -->
<!DOCTYPE svg PUBLIC "-//W3C//DTD SVG 1.1//EN" "http://www.w3.org/Graphics/SVG/1.1/DTD/svg11.dtd">
<svg version="1.1" id="Layer_1" xmlns="http://www.w3.org/2000/svg" xmlns:xlink="http://www.w3.org/1999/xlink" x="0px" y="0px"
	 width="192.026px" height="144.001px" viewBox="0 0 192.026 144.001" enable-background="new 0 0 192.026 144.001"
	 xml:space="preserve">
<g>
	<g>
		
			<radialGradient id="SVGID_1_" cx="96.0146" cy="72.001" r="146.5108" gradientTransform="matrix(1 0 0 1 -0.002 0)" gradientUnits="userSpaceOnUse">
			<stop  offset="0" style="stop-color:#ABD1FF"/>
			<stop  offset="0.1157" style="stop-color:#A4CCF9"/>
			<stop  offset="0.2827" style="stop-color:#91BDE7"/>
			<stop  offset="0.4808" style="stop-color:#72A5CA"/>
			<stop  offset="0.7028" style="stop-color:#4683A2"/>
			<stop  offset="0.9418" style="stop-color:#0F586F"/>
			<stop  offset="1" style="stop-color:#004D61"/>
		</radialGradient>
		<rect y="0" fill="url(#SVGID_1_)" width="192.025" height="144"/>
		
			<image overflow="visible" opacity="0.5" width="801" height="601" xlink:href="FC4E67DCD4F46604.png"  transform="matrix(0.24 0 0 0.24 0.0029 4.882812e-04)">
		</image>
		<g>
			<g>
				<g opacity="0.29">
					
						<radialGradient id="SVGID_2_" cx="2427.3037" cy="-228.4248" r="32.7389" gradientTransform="matrix(-1 0 0 -1 2611.8125 -139.7715)" gradientUnits="userSpaceOnUse">
						<stop  offset="0" style="stop-color:#D9FFFF"/>
						<stop  offset="0.0021" style="stop-color:#D8FFFF"/>
						<stop  offset="0.3326" style="stop-color:#7DC1E4"/>
						<stop  offset="0.6009" style="stop-color:#3A94D0"/>
						<stop  offset="0.7939" style="stop-color:#1079C4"/>
						<stop  offset="0.8928" style="stop-color:#006EBF"/>
						<stop  offset="0.9256" style="stop-color:#00477C"/>
						<stop  offset="0.961" style="stop-color:#002139"/>
						<stop  offset="0.9868" style="stop-color:#000910"/>
						<stop  offset="1" style="stop-color:#000000"/>
					</radialGradient>
					<path fill-rule="evenodd" clip-rule="evenodd" fill="url(#SVGID_2_)" d="M192.026,56.948c-2.604-0.67-5.329-1.033-8.142-1.033
						c-18.082,0-32.739,14.656-32.739,32.736c0,18.082,14.657,32.74,32.739,32.74c2.812,0,5.538-0.367,8.142-1.035V56.948z"/>
					
						<radialGradient id="SVGID_3_" cx="2442.4834" cy="-253.1738" r="18.0817" gradientTransform="matrix(-1 0 0 -1 2611.8125 -139.7715)" gradientUnits="userSpaceOnUse">
						<stop  offset="0" style="stop-color:#D9FFFF"/>
						<stop  offset="0.0021" style="stop-color:#D8FFFF"/>
						<stop  offset="0.3326" style="stop-color:#7DC1E4"/>
						<stop  offset="0.6009" style="stop-color:#3A94D0"/>
						<stop  offset="0.7939" style="stop-color:#1079C4"/>
						<stop  offset="0.8928" style="stop-color:#006EBF"/>
						<stop  offset="0.9256" style="stop-color:#00477C"/>
						<stop  offset="0.961" style="stop-color:#002139"/>
						<stop  offset="0.9868" style="stop-color:#000910"/>
						<stop  offset="1" style="stop-color:#000000"/>
					</radialGradient>
					<circle fill-rule="evenodd" clip-rule="evenodd" fill="url(#SVGID_3_)" cx="168.984" cy="113.403" r="18.082"/>
					
						<radialGradient id="SVGID_4_" cx="384.7168" cy="1156.6836" r="35.1639" gradientTransform="matrix(0.7071 0.7071 -0.7071 0.7071 716.7163 -1047.2853)" gradientUnits="userSpaceOnUse">
						<stop  offset="0" style="stop-color:#D9FFFF"/>
						<stop  offset="0.0021" style="stop-color:#D8FFFF"/>
						<stop  offset="0.3326" style="stop-color:#7DC1E4"/>
						<stop  offset="0.6009" style="stop-color:#3A94D0"/>
						<stop  offset="0.7939" style="stop-color:#1079C4"/>
						<stop  offset="0.8928" style="stop-color:#006EBF"/>
						<stop  offset="0.9256" style="stop-color:#00477C"/>
						<stop  offset="0.961" style="stop-color:#002139"/>
						<stop  offset="0.9868" style="stop-color:#000910"/>
						<stop  offset="1" style="stop-color:#000000"/>
					</radialGradient>
					<path fill-rule="evenodd" clip-rule="evenodd" fill="url(#SVGID_4_)" d="M192.026,14.682
						c-13.753-10.036-33.142-8.849-45.559,3.566c-13.731,13.734-13.731,35.999,0,49.731c12.417,12.416,31.807,13.604,45.559,3.566
						V14.682z"/>
					
						<radialGradient id="SVGID_5_" cx="414.4795" cy="1142.8691" r="19.8679" gradientTransform="matrix(0.7071 0.7071 -0.7071 0.7071 716.7163 -1047.2853)" gradientUnits="userSpaceOnUse">
						<stop  offset="0" style="stop-color:#D9FFFF"/>
						<stop  offset="0.0021" style="stop-color:#D8FFFF"/>
						<stop  offset="0.3326" style="stop-color:#7DC1E4"/>
						<stop  offset="0.6009" style="stop-color:#3A94D0"/>
						<stop  offset="0.7939" style="stop-color:#1079C4"/>
						<stop  offset="0.8928" style="stop-color:#006EBF"/>
						<stop  offset="0.9256" style="stop-color:#00477C"/>
						<stop  offset="0.961" style="stop-color:#002139"/>
						<stop  offset="0.9868" style="stop-color:#000910"/>
						<stop  offset="1" style="stop-color:#000000"/>
					</radialGradient>
					<path fill-rule="evenodd" clip-rule="evenodd" fill="url(#SVGID_5_)" d="M192.026,36.987c-1.476,0.852-2.874,1.887-4.136,3.148
						c-7.76,7.758-7.76,20.338,0,28.098c1.262,1.262,2.66,2.295,4.136,3.145V36.987z"/>
					
						<radialGradient id="SVGID_6_" cx="2493.8564" cy="-171.1533" r="48.4527" gradientTransform="matrix(-1 0 0 -1 2611.8125 -139.7715)" gradientUnits="userSpaceOnUse">
						<stop  offset="0" style="stop-color:#D9FFFF"/>
						<stop  offset="0.0021" style="stop-color:#D8FFFF"/>
						<stop  offset="0.3326" style="stop-color:#7DC1E4"/>
						<stop  offset="0.6009" style="stop-color:#3A94D0"/>
						<stop  offset="0.7939" style="stop-color:#1079C4"/>
						<stop  offset="0.8928" style="stop-color:#006EBF"/>
						<stop  offset="0.9256" style="stop-color:#00477C"/>
						<stop  offset="0.961" style="stop-color:#002139"/>
						<stop  offset="0.9868" style="stop-color:#000910"/>
						<stop  offset="1" style="stop-color:#000000"/>
					</radialGradient>
					<path fill-rule="evenodd" clip-rule="evenodd" fill="url(#SVGID_6_)" d="M80.13,0c-7.197,8.456-11.55,19.408-11.549,31.379
						c-0.001,26.762,21.692,48.456,48.453,48.456c26.757,0,48.45-21.691,48.45-48.456c0-11.971-4.354-22.923-11.549-31.379H80.13z"
						/>
					
						<radialGradient id="SVGID_7_" cx="2534.8662" cy="-190.1929" r="27.3771" gradientTransform="matrix(-1 0 0 -1 2611.8125 -139.7715)" gradientUnits="userSpaceOnUse">
						<stop  offset="0" style="stop-color:#D9FFFF"/>
						<stop  offset="0.0021" style="stop-color:#D8FFFF"/>
						<stop  offset="0.3326" style="stop-color:#7DC1E4"/>
						<stop  offset="0.6009" style="stop-color:#3A94D0"/>
						<stop  offset="0.7939" style="stop-color:#1079C4"/>
						<stop  offset="0.8928" style="stop-color:#006EBF"/>
						<stop  offset="0.9256" style="stop-color:#00477C"/>
						<stop  offset="0.961" style="stop-color:#002139"/>
						<stop  offset="0.9868" style="stop-color:#000910"/>
						<stop  offset="1" style="stop-color:#000000"/>
					</radialGradient>
					<circle fill-rule="evenodd" clip-rule="evenodd" fill="url(#SVGID_7_)" cx="76.425" cy="50.423" r="27.376"/>
					
						<radialGradient id="SVGID_8_" cx="-226.2734" cy="65.8521" r="32.5263" gradientTransform="matrix(1 0 0 1 285.3438 -56.915)" gradientUnits="userSpaceOnUse">
						<stop  offset="0" style="stop-color:#D9FFFF"/>
						<stop  offset="0.0021" style="stop-color:#D8FFFF"/>
						<stop  offset="0.3326" style="stop-color:#7DC1E4"/>
						<stop  offset="0.6009" style="stop-color:#3A94D0"/>
						<stop  offset="0.7939" style="stop-color:#1079C4"/>
						<stop  offset="0.8928" style="stop-color:#006EBF"/>
						<stop  offset="0.9256" style="stop-color:#00477C"/>
						<stop  offset="0.961" style="stop-color:#002139"/>
						<stop  offset="0.9868" style="stop-color:#000910"/>
						<stop  offset="1" style="stop-color:#000000"/>
					</radialGradient>
					<path fill-rule="evenodd" clip-rule="evenodd" fill="url(#SVGID_8_)" d="M28.414,0c-0.812,2.84-1.249,5.837-1.249,8.937
						C27.164,26.901,41.726,41.466,59.69,41.464c17.962,0.002,32.526-14.562,32.525-32.526c0-3.1-0.439-6.097-1.25-8.937H28.414z"/>
					
						<radialGradient id="SVGID_9_" cx="301.2119" cy="1245.292" r="14.1789" gradientTransform="matrix(0.7071 0.7071 -0.7071 0.7071 716.7163 -1047.2853)" gradientUnits="userSpaceOnUse">
						<stop  offset="0" style="stop-color:#D9FFFF"/>
						<stop  offset="0.0021" style="stop-color:#D8FFFF"/>
						<stop  offset="0.3326" style="stop-color:#7DC1E4"/>
						<stop  offset="0.6009" style="stop-color:#3A94D0"/>
						<stop  offset="0.7939" style="stop-color:#1079C4"/>
						<stop  offset="0.8928" style="stop-color:#006EBF"/>
						<stop  offset="0.9256" style="stop-color:#00477C"/>
						<stop  offset="0.961" style="stop-color:#002139"/>
						<stop  offset="0.9868" style="stop-color:#000910"/>
						<stop  offset="1" style="stop-color:#000000"/>
					</radialGradient>
					<path fill-rule="evenodd" clip-rule="evenodd" fill="url(#SVGID_9_)" d="M59.373,56.466c-5.537,5.535-14.516,5.535-20.051,0
						c-5.538-5.537-5.538-14.516-0.001-20.052c5.538-5.541,14.515-5.541,20.053,0C64.91,41.95,64.91,50.929,59.373,56.466z"/>
				</g>
				<g opacity="0.75">
					
						<radialGradient id="SVGID_10_" cx="2444.8223" cy="-182.7207" r="30.2623" gradientTransform="matrix(-1 0 0 -1 2611.8125 -139.7715)" gradientUnits="userSpaceOnUse">
						<stop  offset="0" style="stop-color:#D9FFFF"/>
						<stop  offset="0.0021" style="stop-color:#D8FFFF"/>
						<stop  offset="0.3326" style="stop-color:#7DC1E4"/>
						<stop  offset="0.6009" style="stop-color:#3A94D0"/>
						<stop  offset="0.7939" style="stop-color:#1079C4"/>
						<stop  offset="0.8928" style="stop-color:#006EBF"/>
						<stop  offset="0.9256" style="stop-color:#00477C"/>
						<stop  offset="0.961" style="stop-color:#002139"/>
						<stop  offset="0.9868" style="stop-color:#000910"/>
						<stop  offset="1" style="stop-color:#000000"/>
					</radialGradient>
					<path fill-rule="evenodd" clip-rule="evenodd" fill="url(#SVGID_10_)" d="M192.026,26.838
						c-5.358-8.499-14.821-14.152-25.612-14.152c-16.713,0-30.262,13.549-30.262,30.266c0,16.711,13.548,30.26,30.262,30.26
						c10.791,0,20.255-5.65,25.612-14.148V26.838z"/>
					
						<radialGradient id="SVGID_11_" cx="2472.8203" cy="-212.9639" r="27.3759" gradientTransform="matrix(-1 0 0 -1 2611.8125 -139.7715)" gradientUnits="userSpaceOnUse">
						<stop  offset="0" style="stop-color:#D9FFFF"/>
						<stop  offset="0.0021" style="stop-color:#D8FFFF"/>
						<stop  offset="0.3326" style="stop-color:#7DC1E4"/>
						<stop  offset="0.6009" style="stop-color:#3A94D0"/>
						<stop  offset="0.7939" style="stop-color:#1079C4"/>
						<stop  offset="0.8928" style="stop-color:#006EBF"/>
						<stop  offset="0.9256" style="stop-color:#00477C"/>
						<stop  offset="0.961" style="stop-color:#002139"/>
						<stop  offset="0.9868" style="stop-color:#000910"/>
						<stop  offset="1" style="stop-color:#000000"/>
					</radialGradient>
					<circle fill-rule="evenodd" clip-rule="evenodd" fill="url(#SVGID_11_)" cx="138.471" cy="73.192" r="27.375"/>
					
						<radialGradient id="SVGID_12_" cx="360.3281" cy="1121.2031" r="35.1631" gradientTransform="matrix(0.7071 0.7071 -0.7071 0.7071 716.7163 -1047.2853)" gradientUnits="userSpaceOnUse">
						<stop  offset="0" style="stop-color:#D9FFFF"/>
						<stop  offset="0.0021" style="stop-color:#D8FFFF"/>
						<stop  offset="0.3326" style="stop-color:#7DC1E4"/>
						<stop  offset="0.6009" style="stop-color:#3A94D0"/>
						<stop  offset="0.7939" style="stop-color:#1079C4"/>
						<stop  offset="0.8928" style="stop-color:#006EBF"/>
						<stop  offset="0.9256" style="stop-color:#00477C"/>
						<stop  offset="0.961" style="stop-color:#002139"/>
						<stop  offset="0.9868" style="stop-color:#000910"/>
						<stop  offset="1" style="stop-color:#000000"/>
					</radialGradient>
					<path opacity="0.44" fill-rule="evenodd" clip-rule="evenodd" fill="url(#SVGID_12_)" d="M192.026,0h-47.995
						c-0.204,9.258,3.215,18.579,10.279,25.644c10.197,10.199,25.097,12.818,37.716,7.867V0z"/>
					
						<radialGradient id="SVGID_13_" cx="390.0879" cy="1107.4004" r="19.8555" gradientTransform="matrix(0.7071 0.7071 -0.7071 0.7071 716.7163 -1047.2853)" gradientUnits="userSpaceOnUse">
						<stop  offset="0" style="stop-color:#D9FFFF"/>
						<stop  offset="0.0021" style="stop-color:#D8FFFF"/>
						<stop  offset="0.3326" style="stop-color:#7DC1E4"/>
						<stop  offset="0.6009" style="stop-color:#3A94D0"/>
						<stop  offset="0.7939" style="stop-color:#1079C4"/>
						<stop  offset="0.8928" style="stop-color:#006EBF"/>
						<stop  offset="0.9256" style="stop-color:#00477C"/>
						<stop  offset="0.961" style="stop-color:#002139"/>
						<stop  offset="0.9868" style="stop-color:#000910"/>
						<stop  offset="1" style="stop-color:#000000"/>
					</radialGradient>
					<path opacity="0.44" fill-rule="evenodd" clip-rule="evenodd" fill="url(#SVGID_13_)" d="M192.026,2.983
						c-2.788,5.572-2.781,12.17,0,17.743V2.983z"/>
					
						<radialGradient id="SVGID_14_" cx="2486.0146" cy="-128.8179" r="48.4533" gradientTransform="matrix(-1 0 0 -1 2611.8125 -139.7715)" gradientUnits="userSpaceOnUse">
						<stop  offset="0" style="stop-color:#D9FFFF"/>
						<stop  offset="0.0021" style="stop-color:#D8FFFF"/>
						<stop  offset="0.3326" style="stop-color:#7DC1E4"/>
						<stop  offset="0.6009" style="stop-color:#3A94D0"/>
						<stop  offset="0.7939" style="stop-color:#1079C4"/>
						<stop  offset="0.8928" style="stop-color:#006EBF"/>
						<stop  offset="0.9256" style="stop-color:#00477C"/>
						<stop  offset="0.961" style="stop-color:#002139"/>
						<stop  offset="0.9868" style="stop-color:#000910"/>
						<stop  offset="1" style="stop-color:#000000"/>
					</radialGradient>
					<path opacity="0.44" fill-rule="evenodd" clip-rule="evenodd" fill="url(#SVGID_14_)" d="M77.682,0
						c4.966,21.481,24.204,37.5,47.195,37.5c22.99,0,42.227-16.019,47.192-37.5H77.682z"/>
					
						<radialGradient id="SVGID_15_" cx="2527.0234" cy="-147.8574" r="27.3768" gradientTransform="matrix(-1 0 0 -1 2611.8125 -139.7715)" gradientUnits="userSpaceOnUse">
						<stop  offset="0" style="stop-color:#D9FFFF"/>
						<stop  offset="0.0021" style="stop-color:#D8FFFF"/>
						<stop  offset="0.3326" style="stop-color:#7DC1E4"/>
						<stop  offset="0.6009" style="stop-color:#3A94D0"/>
						<stop  offset="0.7939" style="stop-color:#1079C4"/>
						<stop  offset="0.8928" style="stop-color:#006EBF"/>
						<stop  offset="0.9256" style="stop-color:#00477C"/>
						<stop  offset="0.961" style="stop-color:#002139"/>
						<stop  offset="0.9868" style="stop-color:#000910"/>
						<stop  offset="1" style="stop-color:#000000"/>
					</radialGradient>
					<path fill-rule="evenodd" clip-rule="evenodd" fill="url(#SVGID_15_)" d="M58.106,0c-0.79,2.558-1.216,5.273-1.216,8.086
						c0,15.119,12.257,27.377,27.377,27.377s27.377-12.258,27.377-27.377c0-2.813-0.428-5.528-1.216-8.086H58.106z"/>
					
						<radialGradient id="SVGID_16_" cx="-200.5508" cy="63.6152" r="21.3068" gradientTransform="matrix(1 0 0 1 311.2344 -62.4209)" gradientUnits="userSpaceOnUse">
						<stop  offset="0" style="stop-color:#D9FFFF"/>
						<stop  offset="0.0021" style="stop-color:#D8FFFF"/>
						<stop  offset="0.3326" style="stop-color:#7DC1E4"/>
						<stop  offset="0.6009" style="stop-color:#3A94D0"/>
						<stop  offset="0.7939" style="stop-color:#1079C4"/>
						<stop  offset="0.8928" style="stop-color:#006EBF"/>
						<stop  offset="0.9256" style="stop-color:#00477C"/>
						<stop  offset="0.961" style="stop-color:#002139"/>
						<stop  offset="0.9868" style="stop-color:#000910"/>
						<stop  offset="1" style="stop-color:#000000"/>
					</radialGradient>
					<path fill-rule="evenodd" clip-rule="evenodd" fill="url(#SVGID_16_)" d="M89.838,0c-0.021,0.399-0.056,0.792-0.056,1.194
						c0.001,11.769,9.539,21.309,21.309,21.307c11.766,0.002,21.307-9.538,21.306-21.307c0-0.401-0.034-0.795-0.057-1.194H89.838z"
						/>
					
						<radialGradient id="SVGID_17_" cx="292.0625" cy="1225.584" r="19.8693" gradientTransform="matrix(0.7071 0.7071 -0.7071 0.7071 716.7163 -1047.2853)" gradientUnits="userSpaceOnUse">
						<stop  offset="0" style="stop-color:#D9FFFF"/>
						<stop  offset="0.0021" style="stop-color:#D8FFFF"/>
						<stop  offset="0.3326" style="stop-color:#7DC1E4"/>
						<stop  offset="0.6009" style="stop-color:#3A94D0"/>
						<stop  offset="0.7939" style="stop-color:#1079C4"/>
						<stop  offset="0.8928" style="stop-color:#006EBF"/>
						<stop  offset="0.9256" style="stop-color:#00477C"/>
						<stop  offset="0.961" style="stop-color:#002139"/>
						<stop  offset="0.9868" style="stop-color:#000910"/>
						<stop  offset="1" style="stop-color:#000000"/>
					</radialGradient>
					<path fill-rule="evenodd" clip-rule="evenodd" fill="url(#SVGID_17_)" d="M70.939,40.161c-7.758,7.758-20.338,7.758-28.097,0
						c-7.761-7.763-7.759-20.342,0-28.1c7.759-7.76,20.338-7.76,28.098,0C78.698,19.819,78.698,32.398,70.939,40.161z"/>
				</g>
			</g>
			
				<radialGradient id="SVGID_18_" cx="2550.9883" cy="-181.2354" r="11.7054" gradientTransform="matrix(-1 0 0 -1 2611.8125 -139.7715)" gradientUnits="userSpaceOnUse">
				<stop  offset="0" style="stop-color:#000052"/>
				<stop  offset="0.3327" style="stop-color:#000253"/>
				<stop  offset="0.4526" style="stop-color:#000958"/>
				<stop  offset="0.538" style="stop-color:#001460"/>
				<stop  offset="0.6071" style="stop-color:#00256B"/>
				<stop  offset="0.6663" style="stop-color:#003B7A"/>
				<stop  offset="0.7187" style="stop-color:#00578D"/>
				<stop  offset="0.7661" style="stop-color:#0077A3"/>
				<stop  offset="0.8097" style="stop-color:#009DBC"/>
				<stop  offset="0.8503" style="stop-color:#00C8DA"/>
				<stop  offset="0.8862" style="stop-color:#00F6F9"/>
				<stop  offset="0.8928" style="stop-color:#00FFFF"/>
				<stop  offset="0.9066" style="stop-color:#00D8D8"/>
				<stop  offset="0.9412" style="stop-color:#007D7D"/>
				<stop  offset="0.9694" style="stop-color:#003A3A"/>
				<stop  offset="0.9896" style="stop-color:#001010"/>
				<stop  offset="1" style="stop-color:#000000"/>
			</radialGradient>
			<circle opacity="0.71" fill-rule="evenodd" clip-rule="evenodd" fill="url(#SVGID_18_)" cx="60.601" cy="41.464" r="11.705"/>
			
				<radialGradient id="SVGID_19_" cx="2451.2715" cy="-212.9639" r="17.5351" gradientTransform="matrix(-1 0 0 -1 2611.8125 -139.7715)" gradientUnits="userSpaceOnUse">
				<stop  offset="0" style="stop-color:#000052"/>
				<stop  offset="0.3327" style="stop-color:#000253"/>
				<stop  offset="0.4526" style="stop-color:#000958"/>
				<stop  offset="0.538" style="stop-color:#001460"/>
				<stop  offset="0.6071" style="stop-color:#00256B"/>
				<stop  offset="0.6663" style="stop-color:#003B7A"/>
				<stop  offset="0.7187" style="stop-color:#00578D"/>
				<stop  offset="0.7661" style="stop-color:#0077A3"/>
				<stop  offset="0.8097" style="stop-color:#009DBC"/>
				<stop  offset="0.8503" style="stop-color:#00C8DA"/>
				<stop  offset="0.8862" style="stop-color:#00F6F9"/>
				<stop  offset="0.8928" style="stop-color:#00FFFF"/>
				<stop  offset="0.9066" style="stop-color:#00D8D8"/>
				<stop  offset="0.9412" style="stop-color:#007D7D"/>
				<stop  offset="0.9694" style="stop-color:#003A3A"/>
				<stop  offset="0.9896" style="stop-color:#001010"/>
				<stop  offset="1" style="stop-color:#000000"/>
			</radialGradient>
			<circle opacity="0.71" fill-rule="evenodd" clip-rule="evenodd" fill="url(#SVGID_19_)" cx="160.207" cy="73.192" r="17.535"/>
			
				<radialGradient id="SVGID_20_" cx="2458.5996" cy="-154.5801" r="10.775" gradientTransform="matrix(-1 0 0 -1 2611.8125 -139.7715)" gradientUnits="userSpaceOnUse">
				<stop  offset="0" style="stop-color:#000052"/>
				<stop  offset="0.3327" style="stop-color:#000253"/>
				<stop  offset="0.4526" style="stop-color:#000958"/>
				<stop  offset="0.538" style="stop-color:#001460"/>
				<stop  offset="0.6071" style="stop-color:#00256B"/>
				<stop  offset="0.6663" style="stop-color:#003B7A"/>
				<stop  offset="0.7187" style="stop-color:#00578D"/>
				<stop  offset="0.7661" style="stop-color:#0077A3"/>
				<stop  offset="0.8097" style="stop-color:#009DBC"/>
				<stop  offset="0.8503" style="stop-color:#00C8DA"/>
				<stop  offset="0.8862" style="stop-color:#00F6F9"/>
				<stop  offset="0.8928" style="stop-color:#00FFFF"/>
				<stop  offset="0.9066" style="stop-color:#00D8D8"/>
				<stop  offset="0.9412" style="stop-color:#007D7D"/>
				<stop  offset="0.9694" style="stop-color:#003A3A"/>
				<stop  offset="0.9896" style="stop-color:#001010"/>
				<stop  offset="1" style="stop-color:#000000"/>
			</radialGradient>
			<circle opacity="0.71" fill-rule="evenodd" clip-rule="evenodd" fill="url(#SVGID_20_)" cx="153.008" cy="14.809" r="10.775"/>
		</g>
		<g opacity="0.5">
			<g>
				<g opacity="0.29">
					
						<radialGradient id="SVGID_21_" cx="2256.5283" cy="-395.1699" r="32.739" gradientTransform="matrix(1 0 0 1 -2270.7305 473.416)" gradientUnits="userSpaceOnUse">
						<stop  offset="0" style="stop-color:#D9FFFF"/>
						<stop  offset="0.0021" style="stop-color:#D8FFFF"/>
						<stop  offset="0.3326" style="stop-color:#7DC1E4"/>
						<stop  offset="0.6009" style="stop-color:#3A94D0"/>
						<stop  offset="0.7939" style="stop-color:#1079C4"/>
						<stop  offset="0.8928" style="stop-color:#006EBF"/>
						<stop  offset="0.9256" style="stop-color:#00477C"/>
						<stop  offset="0.961" style="stop-color:#002139"/>
						<stop  offset="0.9868" style="stop-color:#000910"/>
						<stop  offset="1" style="stop-color:#000000"/>
					</radialGradient>
					<path fill-rule="evenodd" clip-rule="evenodd" fill="url(#SVGID_21_)" d="M0.003,48.459v59.574
						c11.301-5.16,19.158-16.552,19.158-29.785C19.161,65.013,11.304,53.62,0.003,48.459z"/>
					
						<radialGradient id="SVGID_22_" cx="2271.708" cy="-419.9189" r="18.0817" gradientTransform="matrix(1 0 0 1 -2270.7305 473.416)" gradientUnits="userSpaceOnUse">
						<stop  offset="0" style="stop-color:#D9FFFF"/>
						<stop  offset="0.0021" style="stop-color:#D8FFFF"/>
						<stop  offset="0.3326" style="stop-color:#7DC1E4"/>
						<stop  offset="0.6009" style="stop-color:#3A94D0"/>
						<stop  offset="0.7939" style="stop-color:#1079C4"/>
						<stop  offset="0.8928" style="stop-color:#006EBF"/>
						<stop  offset="0.9256" style="stop-color:#00477C"/>
						<stop  offset="0.961" style="stop-color:#002139"/>
						<stop  offset="0.9868" style="stop-color:#000910"/>
						<stop  offset="1" style="stop-color:#000000"/>
					</radialGradient>
					<path fill-rule="evenodd" clip-rule="evenodd" fill="url(#SVGID_22_)" d="M1.321,35.416c-0.445,0-0.881,0.035-1.318,0.066
						v36.029c0.438,0.031,0.873,0.066,1.318,0.066c9.988,0,18.083-8.094,18.083-18.082C19.404,43.51,11.31,35.416,1.321,35.416z"/>
					
						<radialGradient id="SVGID_23_" cx="623.3809" cy="1153.8359" r="35.1634" gradientTransform="matrix(-0.7071 -0.7071 0.7071 -0.7071 -375.6348 1380.9288)" gradientUnits="userSpaceOnUse">
						<stop  offset="0" style="stop-color:#D9FFFF"/>
						<stop  offset="0.0021" style="stop-color:#D8FFFF"/>
						<stop  offset="0.3326" style="stop-color:#7DC1E4"/>
						<stop  offset="0.6009" style="stop-color:#3A94D0"/>
						<stop  offset="0.7939" style="stop-color:#1079C4"/>
						<stop  offset="0.8928" style="stop-color:#006EBF"/>
						<stop  offset="0.9256" style="stop-color:#00477C"/>
						<stop  offset="0.961" style="stop-color:#002139"/>
						<stop  offset="0.9868" style="stop-color:#000910"/>
						<stop  offset="1" style="stop-color:#000000"/>
					</radialGradient>
					<path fill-rule="evenodd" clip-rule="evenodd" fill="url(#SVGID_23_)" d="M27.74,144.001
						c9.665-13.723,8.371-32.808-3.901-45.081C17.233,92.315,8.656,88.889,0.003,88.638v55.363H27.74z"/>
					
						<radialGradient id="SVGID_24_" cx="2323.0811" cy="-337.8984" r="48.4529" gradientTransform="matrix(1 0 0 1 -2270.7305 473.416)" gradientUnits="userSpaceOnUse">
						<stop  offset="0" style="stop-color:#D9FFFF"/>
						<stop  offset="0.0021" style="stop-color:#D8FFFF"/>
						<stop  offset="0.3326" style="stop-color:#7DC1E4"/>
						<stop  offset="0.6009" style="stop-color:#3A94D0"/>
						<stop  offset="0.7939" style="stop-color:#1079C4"/>
						<stop  offset="0.8928" style="stop-color:#006EBF"/>
						<stop  offset="0.9256" style="stop-color:#00477C"/>
						<stop  offset="0.961" style="stop-color:#002139"/>
						<stop  offset="0.9868" style="stop-color:#000910"/>
						<stop  offset="1" style="stop-color:#000000"/>
					</radialGradient>
					<path fill-rule="evenodd" clip-rule="evenodd" fill="url(#SVGID_24_)" d="M100.979,144.001
						c0.487-2.754,0.747-5.587,0.747-8.481c0.001-26.762-21.692-48.455-48.453-48.455c-26.757,0-48.45,21.691-48.45,48.455
						c0,2.895,0.26,5.728,0.747,8.481H100.979z"/>
					
						<radialGradient id="SVGID_25_" cx="2364.0908" cy="-356.938" r="27.3771" gradientTransform="matrix(1 0 0 1 -2270.7305 473.416)" gradientUnits="userSpaceOnUse">
						<stop  offset="0" style="stop-color:#D9FFFF"/>
						<stop  offset="0.0021" style="stop-color:#D8FFFF"/>
						<stop  offset="0.3326" style="stop-color:#7DC1E4"/>
						<stop  offset="0.6009" style="stop-color:#3A94D0"/>
						<stop  offset="0.7939" style="stop-color:#1079C4"/>
						<stop  offset="0.8928" style="stop-color:#006EBF"/>
						<stop  offset="0.9256" style="stop-color:#00477C"/>
						<stop  offset="0.961" style="stop-color:#002139"/>
						<stop  offset="0.9868" style="stop-color:#000910"/>
						<stop  offset="1" style="stop-color:#000000"/>
					</radialGradient>
					<circle fill-rule="evenodd" clip-rule="evenodd" fill="url(#SVGID_25_)" cx="93.882" cy="116.477" r="27.376"/>
					
						<radialGradient id="SVGID_26_" cx="-55.498" cy="232.5957" r="32.5267" gradientTransform="matrix(-1 0 0 -1 55.7383 390.5586)" gradientUnits="userSpaceOnUse">
						<stop  offset="0" style="stop-color:#D9FFFF"/>
						<stop  offset="0.0021" style="stop-color:#D8FFFF"/>
						<stop  offset="0.3326" style="stop-color:#7DC1E4"/>
						<stop  offset="0.6009" style="stop-color:#3A94D0"/>
						<stop  offset="0.7939" style="stop-color:#1079C4"/>
						<stop  offset="0.8928" style="stop-color:#006EBF"/>
						<stop  offset="0.9256" style="stop-color:#00477C"/>
						<stop  offset="0.961" style="stop-color:#002139"/>
						<stop  offset="0.9868" style="stop-color:#000910"/>
						<stop  offset="1" style="stop-color:#000000"/>
					</radialGradient>
					<path fill-rule="evenodd" clip-rule="evenodd" fill="url(#SVGID_26_)" d="M139.999,144.001
						c-5.225-10.978-16.416-18.566-29.383-18.565c-12.965-0.001-24.157,7.588-29.382,18.565H139.999z"/>
					
						<radialGradient id="SVGID_27_" cx="539.876" cy="1242.4424" r="14.1789" gradientTransform="matrix(-0.7071 -0.7071 0.7071 -0.7071 -375.6348 1380.9288)" gradientUnits="userSpaceOnUse">
						<stop  offset="0" style="stop-color:#D9FFFF"/>
						<stop  offset="0.0021" style="stop-color:#D8FFFF"/>
						<stop  offset="0.3326" style="stop-color:#7DC1E4"/>
						<stop  offset="0.6009" style="stop-color:#3A94D0"/>
						<stop  offset="0.7939" style="stop-color:#1079C4"/>
						<stop  offset="0.8928" style="stop-color:#006EBF"/>
						<stop  offset="0.9256" style="stop-color:#00477C"/>
						<stop  offset="0.961" style="stop-color:#002139"/>
						<stop  offset="0.9868" style="stop-color:#000910"/>
						<stop  offset="1" style="stop-color:#000000"/>
					</radialGradient>
					<path fill-rule="evenodd" clip-rule="evenodd" fill="url(#SVGID_27_)" d="M110.934,110.434c5.537-5.535,14.516-5.535,20.051,0
						c5.538,5.537,5.538,14.516,0.001,20.052c-5.538,5.54-14.515,5.54-20.053,0C105.396,124.949,105.396,115.971,110.934,110.434z"
						/>
				</g>
				<g opacity="0.75">
					
						<radialGradient id="SVGID_28_" cx="2274.0469" cy="-349.4658" r="30.2623" gradientTransform="matrix(1 0 0 1 -2270.7305 473.416)" gradientUnits="userSpaceOnUse">
						<stop  offset="0" style="stop-color:#D9FFFF"/>
						<stop  offset="0.0021" style="stop-color:#D8FFFF"/>
						<stop  offset="0.3326" style="stop-color:#7DC1E4"/>
						<stop  offset="0.6009" style="stop-color:#3A94D0"/>
						<stop  offset="0.7939" style="stop-color:#1079C4"/>
						<stop  offset="0.8928" style="stop-color:#006EBF"/>
						<stop  offset="0.9256" style="stop-color:#00477C"/>
						<stop  offset="0.961" style="stop-color:#002139"/>
						<stop  offset="0.9868" style="stop-color:#000910"/>
						<stop  offset="1" style="stop-color:#000000"/>
					</radialGradient>
					<path fill-rule="evenodd" clip-rule="evenodd" fill="url(#SVGID_28_)" d="M26.55,144.001c4.729-5.34,7.604-12.359,7.604-20.054
						c0-16.711-13.548-30.26-30.262-30.26c-1.318,0-2.616,0.087-3.89,0.251v50.062H26.55z"/>
					
						<radialGradient id="SVGID_29_" cx="2302.0449" cy="-379.709" r="27.3759" gradientTransform="matrix(1 0 0 1 -2270.7305 473.416)" gradientUnits="userSpaceOnUse">
						<stop  offset="0" style="stop-color:#D9FFFF"/>
						<stop  offset="0.0021" style="stop-color:#D8FFFF"/>
						<stop  offset="0.3326" style="stop-color:#7DC1E4"/>
						<stop  offset="0.6009" style="stop-color:#3A94D0"/>
						<stop  offset="0.7939" style="stop-color:#1079C4"/>
						<stop  offset="0.8928" style="stop-color:#006EBF"/>
						<stop  offset="0.9256" style="stop-color:#00477C"/>
						<stop  offset="0.961" style="stop-color:#002139"/>
						<stop  offset="0.9868" style="stop-color:#000910"/>
						<stop  offset="1" style="stop-color:#000000"/>
					</radialGradient>
					<circle fill-rule="evenodd" clip-rule="evenodd" fill="url(#SVGID_29_)" cx="31.835" cy="93.707" r="27.375"/>
					
						<radialGradient id="SVGID_30_" cx="598.9912" cy="1118.3545" r="35.1627" gradientTransform="matrix(-0.7071 -0.7071 0.7071 -0.7071 -375.6348 1380.9288)" gradientUnits="userSpaceOnUse">
						<stop  offset="0" style="stop-color:#D9FFFF"/>
						<stop  offset="0.0021" style="stop-color:#D8FFFF"/>
						<stop  offset="0.3326" style="stop-color:#7DC1E4"/>
						<stop  offset="0.6009" style="stop-color:#3A94D0"/>
						<stop  offset="0.7939" style="stop-color:#1079C4"/>
						<stop  offset="0.8928" style="stop-color:#006EBF"/>
						<stop  offset="0.9256" style="stop-color:#00477C"/>
						<stop  offset="0.961" style="stop-color:#002139"/>
						<stop  offset="0.9868" style="stop-color:#000910"/>
						<stop  offset="1" style="stop-color:#000000"/>
					</radialGradient>
					<path opacity="0.44" fill-rule="evenodd" clip-rule="evenodd" fill="url(#SVGID_30_)" d="M18.47,144.001
						c-0.768-0.947-1.592-1.863-2.474-2.745c-4.59-4.591-10.135-7.632-15.993-9.151v11.896H18.47z"/>
					
						<radialGradient id="SVGID_31_" cx="2315.2383" cy="-295.5635" r="48.4543" gradientTransform="matrix(1 0 0 1 -2270.7305 473.416)" gradientUnits="userSpaceOnUse">
						<stop  offset="0" style="stop-color:#D9FFFF"/>
						<stop  offset="0.0021" style="stop-color:#D8FFFF"/>
						<stop  offset="0.3326" style="stop-color:#7DC1E4"/>
						<stop  offset="0.6009" style="stop-color:#3A94D0"/>
						<stop  offset="0.7939" style="stop-color:#1079C4"/>
						<stop  offset="0.8928" style="stop-color:#006EBF"/>
						<stop  offset="0.9256" style="stop-color:#00477C"/>
						<stop  offset="0.961" style="stop-color:#002139"/>
						<stop  offset="0.9868" style="stop-color:#000910"/>
						<stop  offset="1" style="stop-color:#000000"/>
					</radialGradient>
					<path opacity="0.44" fill-rule="evenodd" clip-rule="evenodd" fill="url(#SVGID_31_)" d="M80.081,144.001
						c-8.795-9.008-21.066-14.603-34.651-14.603c-13.584,0-25.854,5.596-34.647,14.603H80.081z"/>
					
						<radialGradient id="SVGID_32_" cx="2356.248" cy="-314.603" r="27.3767" gradientTransform="matrix(1 0 0 1 -2270.7305 473.416)" gradientUnits="userSpaceOnUse">
						<stop  offset="0" style="stop-color:#D9FFFF"/>
						<stop  offset="0.0021" style="stop-color:#D8FFFF"/>
						<stop  offset="0.3326" style="stop-color:#7DC1E4"/>
						<stop  offset="0.6009" style="stop-color:#3A94D0"/>
						<stop  offset="0.7939" style="stop-color:#1079C4"/>
						<stop  offset="0.8928" style="stop-color:#006EBF"/>
						<stop  offset="0.9256" style="stop-color:#00477C"/>
						<stop  offset="0.961" style="stop-color:#002139"/>
						<stop  offset="0.9868" style="stop-color:#000910"/>
						<stop  offset="1" style="stop-color:#000000"/>
					</radialGradient>
					<path fill-rule="evenodd" clip-rule="evenodd" fill="url(#SVGID_32_)" d="M109.058,144.001
						c-4.873-7.557-13.358-12.565-23.019-12.565s-18.146,5.009-23.019,12.565H109.058z"/>
					
						<radialGradient id="SVGID_33_" cx="530.7266" cy="1222.7344" r="19.8693" gradientTransform="matrix(-0.7071 -0.7071 0.7071 -0.7071 -375.6348 1380.9288)" gradientUnits="userSpaceOnUse">
						<stop  offset="0" style="stop-color:#D9FFFF"/>
						<stop  offset="0.0021" style="stop-color:#D8FFFF"/>
						<stop  offset="0.3326" style="stop-color:#7DC1E4"/>
						<stop  offset="0.6009" style="stop-color:#3A94D0"/>
						<stop  offset="0.7939" style="stop-color:#1079C4"/>
						<stop  offset="0.8928" style="stop-color:#006EBF"/>
						<stop  offset="0.9256" style="stop-color:#00477C"/>
						<stop  offset="0.961" style="stop-color:#002139"/>
						<stop  offset="0.9868" style="stop-color:#000910"/>
						<stop  offset="1" style="stop-color:#000000"/>
					</radialGradient>
					<path fill-rule="evenodd" clip-rule="evenodd" fill="url(#SVGID_33_)" d="M133.004,144.001
						c0.994-6.094-0.84-12.561-5.54-17.263c-7.759-7.758-20.339-7.758-28.097,0c-4.699,4.702-6.533,11.169-5.54,17.263H133.004z"/>
				</g>
			</g>
			
				<radialGradient id="SVGID_34_" cx="2345.2129" cy="-349.6475" r="11.7054" gradientTransform="matrix(1 0 0 1 -2270.7305 473.416)" gradientUnits="userSpaceOnUse">
				<stop  offset="0" style="stop-color:#000052"/>
				<stop  offset="0.3327" style="stop-color:#000253"/>
				<stop  offset="0.4526" style="stop-color:#000958"/>
				<stop  offset="0.538" style="stop-color:#001460"/>
				<stop  offset="0.6071" style="stop-color:#00256B"/>
				<stop  offset="0.6663" style="stop-color:#003B7A"/>
				<stop  offset="0.7187" style="stop-color:#00578D"/>
				<stop  offset="0.7661" style="stop-color:#0077A3"/>
				<stop  offset="0.8097" style="stop-color:#009DBC"/>
				<stop  offset="0.8503" style="stop-color:#00C8DA"/>
				<stop  offset="0.8862" style="stop-color:#00F6F9"/>
				<stop  offset="0.8928" style="stop-color:#00FFFF"/>
				<stop  offset="0.9066" style="stop-color:#00D8D8"/>
				<stop  offset="0.9412" style="stop-color:#007D7D"/>
				<stop  offset="0.9694" style="stop-color:#003A3A"/>
				<stop  offset="0.9896" style="stop-color:#001010"/>
				<stop  offset="1" style="stop-color:#000000"/>
			</radialGradient>
			<circle opacity="0.71" fill-rule="evenodd" clip-rule="evenodd" fill="url(#SVGID_34_)" cx="74.706" cy="123.769" r="11.705"/>
			
				<radialGradient id="SVGID_35_" cx="2280.4951" cy="-379.709" r="17.5356" gradientTransform="matrix(1 0 0 1 -2270.7305 473.416)" gradientUnits="userSpaceOnUse">
				<stop  offset="0" style="stop-color:#000052"/>
				<stop  offset="0.3327" style="stop-color:#000253"/>
				<stop  offset="0.4526" style="stop-color:#000958"/>
				<stop  offset="0.538" style="stop-color:#001460"/>
				<stop  offset="0.6071" style="stop-color:#00256B"/>
				<stop  offset="0.6663" style="stop-color:#003B7A"/>
				<stop  offset="0.7187" style="stop-color:#00578D"/>
				<stop  offset="0.7661" style="stop-color:#0077A3"/>
				<stop  offset="0.8097" style="stop-color:#009DBC"/>
				<stop  offset="0.8503" style="stop-color:#00C8DA"/>
				<stop  offset="0.8862" style="stop-color:#00F6F9"/>
				<stop  offset="0.8928" style="stop-color:#00FFFF"/>
				<stop  offset="0.9066" style="stop-color:#00D8D8"/>
				<stop  offset="0.9412" style="stop-color:#007D7D"/>
				<stop  offset="0.9694" style="stop-color:#003A3A"/>
				<stop  offset="0.9896" style="stop-color:#001010"/>
				<stop  offset="1" style="stop-color:#000000"/>
			</radialGradient>
			<path opacity="0.71" fill-rule="evenodd" clip-rule="evenodd" fill="url(#SVGID_35_)" d="M10.101,76.172
				c-3.764,0-7.241,1.196-10.098,3.214v28.643c2.856,2.018,6.334,3.214,10.098,3.214c9.686,0,17.534-7.85,17.534-17.535
				S19.786,76.172,10.101,76.172z"/>
			
				<radialGradient id="SVGID_36_" cx="2287.8232" cy="-321.3252" r="10.7754" gradientTransform="matrix(1 0 0 1 -2270.7305 473.416)" gradientUnits="userSpaceOnUse">
				<stop  offset="0" style="stop-color:#000052"/>
				<stop  offset="0.3327" style="stop-color:#000253"/>
				<stop  offset="0.4526" style="stop-color:#000958"/>
				<stop  offset="0.538" style="stop-color:#001460"/>
				<stop  offset="0.6071" style="stop-color:#00256B"/>
				<stop  offset="0.6663" style="stop-color:#003B7A"/>
				<stop  offset="0.7187" style="stop-color:#00578D"/>
				<stop  offset="0.7661" style="stop-color:#0077A3"/>
				<stop  offset="0.8097" style="stop-color:#009DBC"/>
				<stop  offset="0.8503" style="stop-color:#00C8DA"/>
				<stop  offset="0.8862" style="stop-color:#00F6F9"/>
				<stop  offset="0.8928" style="stop-color:#00FFFF"/>
				<stop  offset="0.9066" style="stop-color:#00D8D8"/>
				<stop  offset="0.9412" style="stop-color:#007D7D"/>
				<stop  offset="0.9694" style="stop-color:#003A3A"/>
				<stop  offset="0.9896" style="stop-color:#001010"/>
				<stop  offset="1" style="stop-color:#000000"/>
			</radialGradient>
			<path opacity="0.71" fill-rule="evenodd" clip-rule="evenodd" fill="url(#SVGID_36_)" d="M24.401,144.001
				c-1.897-1.666-4.378-2.685-7.103-2.685s-5.205,1.019-7.102,2.685H24.401z"/>
		</g>
		<g opacity="0.73">
			<g>
				<g>
					<g>
						<g>
							<polygon fill="#FAFEFF" points="188.307,33.752 192.026,31.663 192.026,30.829 188.307,32.928 182.134,29.439 
								182.134,22.457 188.307,18.976 192.026,21.07 192.026,20.231 188.307,18.129 181.395,22.042 181.395,29.867 							"/>
						</g>
						<g>
							<polygon fill="#FAFEFF" points="157.937,0 159.531,1.214 158.668,8.223 152.185,10.917 146.549,6.621 147.351,0 146.62,0 
								145.762,6.941 152.078,11.752 159.347,8.736 160.307,0.895 159.131,0 							"/>
							<polygon fill="#FAFEFF" points="182.137,22.416 182.372,22.048 159.177,8.121 158.948,8.498 							"/>
						</g>
						<g>
							<path fill="#FAFEFF" d="M186.104,62.858l5.198-2.096l0.725-4.821v-0.776l-4.267-3.325l-5.215,2.093l-0.819,5.506
								L186.104,62.858z M183.007,54.306l4.658-1.89l3.914,3.05l-0.741,4.93l-4.648,1.877l-3.904-3.039L183.007,54.306z"/>
							<polygon fill="#FAFEFF" points="188.45,33.183 188.127,33.176 187.427,52.148 187.747,52.161 							"/>
						</g>
						<g>
							<path fill="#FAFEFF" d="M166.854,40.297l-4.81-2.888l-4.947,2.635l-0.15,5.528l4.818,2.88l4.957-2.625L166.854,40.297z
								 M162.025,38.009l4.304,2.564l-0.122,4.938l-4.429,2.347l-4.294-2.556l0.119-4.944L162.025,38.009z"/>
							<polygon fill="#FAFEFF" points="182.362,29.711 182.188,29.449 166.409,40.226 166.584,40.476 							"/>
						</g>
					</g>
					<g>
						<polygon fill="#FAFEFF" points="185.045,93.806 192.026,93.147 192.026,92.329 185.447,92.952 180.848,86.472 184.133,79.259 
							191.999,78.515 192.026,78.554 192.026,77.685 183.578,78.483 179.897,86.56 						"/>
						<g>
							<path fill="#FAFEFF" d="M171.231,64.235l2.501-5.238l-3.269-4.793l-5.778,0.434l-2.501,5.226l3.268,4.804L171.231,64.235z
								 M173.115,59.052l-2.24,4.67l-5.148,0.385l-2.924-4.289l2.237-4.674l5.153-0.382L173.115,59.052z"/>
							<polygon fill="#FAFEFF" points="183.894,79.028 184.138,78.815 171.249,63.767 170.999,63.979 							"/>
						</g>
						<g>
							<path fill="#FAFEFF" d="M180.352,101.536l-2.916-0.396l-1.831,2.266l1.08,2.686l2.906,0.412l1.834-2.287L180.352,101.536z
								 M177.557,101.419l2.597,0.361l0.96,2.395l-1.639,2.039l-2.596-0.365l-0.962-2.391L177.557,101.419z"/>
							<polygon fill="#FAFEFF" points="185.599,93.294 185.454,93.208 180.123,101.599 180.262,101.683 							"/>
						</g>
						<g>
							<path fill="#FAFEFF" d="M167.951,87.214l-1.814-3.365l-3.848-0.172l-2.043,3.205l1.812,3.365l3.852,0.176L167.951,87.214z
								 M165.914,84.198l1.617,3.008l-1.817,2.848l-3.438-0.154l-1.619-3.004l1.823-2.854L165.914,84.198z"/>
							<polygon fill="#FAFEFF" points="180.817,86.384 180.8,86.171 167.707,87.032 167.725,87.235 							"/>
						</g>
					</g>
					<g>
						<path fill="#FAFEFF" d="M90.341,21.811l-1.768,8.638l6.601,5.898l8.363-2.716l1.761-8.64l-6.601-5.898L90.341,21.811z
							 M89.476,30.156l1.57-7.716l7.456-2.443l5.898,5.286l-1.575,7.716l-7.454,2.426L89.476,30.156z"/>
						<g>
							<path fill="#FAFEFF" d="M109.557,38.603l-0.736,2.428l1.717,1.855l2.457-0.562l0.739-2.409l-1.719-1.867L109.557,38.603z
								 M109.075,40.953l0.669-2.142l2.186-0.516l1.544,1.67l-0.666,2.156l-2.188,0.494L109.075,40.953z"/>
							<polygon fill="#FAFEFF" points="103.144,33.052 103.044,33.152 109.574,38.812 109.664,38.702 							"/>
						</g>
						<g>
							<path fill="#FAFEFF" d="M107.918,50.639l-2.53,0.263l-1.062,2.285l1.466,2.025l2.531-0.25l1.062-2.288L107.918,50.639z
								 M105.541,51.108l2.271-0.229l1.301,1.814l-0.953,2.039l-2.261,0.229l-1.311-1.808L105.541,51.108z"/>
							<polygon fill="#FAFEFF" points="110.607,42.616 110.466,42.569 107.738,50.724 107.875,50.777 							"/>
						</g>
						<g>
							<path fill="#FAFEFF" d="M119.454,38.797l1.036,1.464l1.791-0.139l0.759-1.588l-1.028-1.461l-1.794,0.137L119.454,38.797z
								 M120.562,40.088l-0.916-1.306l0.678-1.415l1.603-0.126l0.924,1.293l-0.676,1.432L120.562,40.088z"/>
							<polygon fill="#FAFEFF" points="113.531,39.915 113.561,40.005 119.578,38.882 119.563,38.782 							"/>
						</g>
						<g>
							<path fill="#FAFEFF" d="M117.305,46.083l-0.571,1.675l1.187,1.347l1.75-0.345l0.56-1.677l-1.179-1.35L117.305,46.083z
								 M116.928,47.728l0.506-1.508l1.568-0.314l1.045,1.207l-0.498,1.508l-1.565,0.316L116.928,47.728z"/>
							<polygon fill="#FAFEFF" points="112.87,42.038 112.817,42.112 117.319,46.22 117.38,46.134 							"/>
						</g>
						<g>
							<path fill="#FAFEFF" d="M75.195,10.714l1.264-5.628L72.217,1.15l-5.502,1.68l-1.259,5.613l4.235,3.943L75.195,10.714z
								 M75.871,5.264l-1.136,5.027l-4.911,1.502l-3.772-3.525l1.125-5.023l4.901-1.502L75.871,5.264z"/>
							<polygon fill="#FAFEFF" points="90.759,22.272 90.951,22.02 75.119,10.257 74.913,10.518 							"/>
						</g>
						<g>
							<path fill="#FAFEFF" d="M118.917,18.129l3.581,2.995l4.4-1.526l0.831-4.52l-3.573-2.979l-4.4,1.524L118.917,18.129z
								 M122.573,20.639l-3.189-2.665l0.749-4.033l3.936-1.362l3.199,2.672l-0.754,4.024L122.573,20.639z"/>
							<polygon fill="#FAFEFF" points="104.799,24.852 104.916,25.083 119.271,18.253 119.155,18.015 							"/>
						</g>
						<g>
							<path fill="#FAFEFF" d="M92.342,44.864l-2.91,0.254L88.16,47.72l1.648,2.372l2.9-0.255l1.276-2.604L92.342,44.864z
								 M89.604,45.37l2.608-0.213l1.464,2.094l-1.136,2.336l-2.608,0.211l-1.459-2.094L89.604,45.37z"/>
							<polygon fill="#FAFEFF" points="95.6,35.731 95.444,35.675 92.133,44.979 92.288,45.017 							"/>
						</g>
						<g>
							<path fill="#FAFEFF" d="M77.13,33.713l-2.501-2.869l-3.767,0.659l-1.267,3.549l2.51,2.881l3.766-0.692L77.13,33.713z
								 M74.487,31.211l2.234,2.572l-1.118,3.163l-3.369,0.617l-2.239-2.579l1.133-3.166L74.487,31.211z"/>
							<polygon fill="#FAFEFF" points="89.427,30.081 89.359,29.875 76.854,33.56 76.916,33.784 							"/>
						</g>
						<g>
							<path fill="#FAFEFF" d="M102.215,7.926l3.797-0.46l1.52-3.488l-2.271-2.998l-3.795,0.471l-1.521,3.474L102.215,7.926z
								 M105.765,7.133l-3.385,0.431l-2.037-2.687l1.359-3.117l3.398-0.401l2.027,2.669L105.765,7.133z"/>
							<polygon fill="#FAFEFF" points="98.427,20.082 98.644,20.133 102.475,7.788 102.273,7.719 							"/>
						</g>
					</g>
					<g>
						<path fill="#FAFEFF" d="M48.924,21.793l-1.942,5.037l3.374,4.204l5.327-0.81l1.942-5.028l-3.374-4.218L48.924,21.793z
							 M47.556,26.729l1.73-4.488l4.748-0.725l3.018,3.766l-1.736,4.507l-4.753,0.722L47.556,26.729z"/>
						<g>
							<path fill="#FAFEFF" d="M58.805,33.837l-0.695,1.386l0.848,1.293l1.539-0.093l0.695-1.371l-0.849-1.301L58.805,33.837z
								 M58.27,35.208l0.625-1.235l1.361-0.075l0.761,1.155l-0.62,1.233l-1.366,0.077L58.27,35.208z"/>
							<polygon fill="#FAFEFF" points="55.495,29.84 55.42,29.901 58.792,33.961 58.855,33.915 							"/>
						</g>
						<g>
							<path fill="#FAFEFF" d="M56.58,40.921l-1.549-0.09l-0.871,1.277l0.684,1.371l1.546,0.09l0.871-1.268L56.58,40.921z
								 M55.102,40.97l1.391,0.09l0.603,1.233l-0.785,1.122l-1.386-0.076l-0.603-1.227L55.102,40.97z"/>
							<polygon fill="#FAFEFF" points="59.021,36.363 58.942,36.324 56.468,40.97 56.543,41.003 							"/>
						</g>
						<g>
							<path fill="#FAFEFF" d="M64.756,34.953l0.464,0.979l1.092,0.098l0.625-0.883l-0.477-0.987l-1.092-0.097L64.756,34.953z
								 M65.281,35.838l-0.419-0.885l0.557-0.783l0.973,0.083l0.431,0.877l-0.56,0.792L65.281,35.838z"/>
							<polygon fill="#FAFEFF" points="61.065,35.014 61.075,35.092 64.809,35.009 64.821,34.953 							"/>
						</g>
						<g>
							<path fill="#FAFEFF" d="M62.709,39.13l-0.506,0.958l0.576,0.915l1.087-0.033l0.505-0.965l-0.576-0.919L62.709,39.13z
								 M62.314,40.088l0.465-0.86l0.963-0.039l0.518,0.831l-0.455,0.856l-0.975,0.029L62.314,40.088z"/>
							<polygon fill="#FAFEFF" points="60.452,36.249 60.401,36.286 62.709,39.205 62.75,39.157 							"/>
						</g>
						<g>
							<path fill="#FAFEFF" d="M40.923,13.571l1.337-3.258L40.106,7.52L36.61,7.975l-1.332,3.265l2.153,2.801L40.923,13.571z
								 M41.884,10.36l-1.194,2.919l-3.109,0.409l-1.926-2.512l1.189-2.907l3.119-0.404L41.884,10.36z"/>
							<polygon fill="#FAFEFF" points="49.131,22.112 49.27,21.971 40.918,13.304 40.77,13.433 							"/>
						</g>
						<g>
							<path fill="#FAFEFF" d="M66.523,22.44l1.853,2.156l2.822-0.483l0.96-2.641l-1.853-2.166l-2.815,0.486L66.523,22.44z
								 M68.48,24.305l-1.648-1.92l0.854-2.351l2.523-0.433l1.646,1.916l-0.863,2.373L68.48,24.305z"/>
							<polygon fill="#FAFEFF" points="57.338,25.065 57.382,25.221 66.734,22.542 66.684,22.384 							"/>
						</g>
						<g>
							<path fill="#FAFEFF" d="M47.784,35.892l-1.785-0.136l-1.025,1.432l0.751,1.595l1.772,0.15l1.035-1.453L47.784,35.892z
								 M46.08,35.916l1.597,0.136l0.659,1.41l-0.914,1.293l-1.59-0.119l-0.674-1.426L46.08,35.916z"/>
							<polygon fill="#FAFEFF" points="50.675,30.706 50.587,30.66 47.641,35.933 47.735,35.977 							"/>
						</g>
						<g>
							<path fill="#FAFEFF" d="M39.749,27.63l-1.226-1.977l-2.334,0.049l-1.128,1.991l1.216,1.989l2.349-0.037L39.749,27.63z
								 M38.399,25.871l1.097,1.767l-1.002,1.802l-2.091,0.024l-1.089-1.77l1.002-1.794L38.399,25.871z"/>
							
								<rect x="43.499" y="23.124" transform="matrix(0.1353 0.9908 -0.9908 0.1353 64.5256 -19.7198)" fill="#FAFEFF" width="0.123" height="7.968"/>
						</g>
						<g>
							<path fill="#FAFEFF" d="M57.494,14.612l2.338,0.1l1.279-1.947l-1.064-2.05l-2.342-0.1l-1.273,1.957L57.494,14.612z
								 M59.723,14.488l-2.088-0.078l-0.958-1.838l1.15-1.741l2.086,0.09l0.948,1.826L59.723,14.488z"/>
							<polygon fill="#FAFEFF" points="53.985,21.558 54.107,21.618 57.669,14.551 57.557,14.488 							"/>
						</g>
					</g>
				</g>
				<g opacity="0.38">
					<g>
						<g>
							<path fill="#FAFEFF" d="M132.159,4.17l-3.112-0.372l-1.9,2.465l1.201,2.842l3.111,0.379l1.908-2.473L132.159,4.17z
								 M129.179,4.109l2.783,0.336l1.067,2.519l-1.711,2.203l-2.771-0.338l-1.077-2.526L129.179,4.109z"/>
							<polygon fill="#FAFEFF" points="134.512,0 131.921,4.248 132.069,4.331 134.718,0 							"/>
						</g>
						<g>
							<path fill="#FAFEFF" d="M144.696,1.25l-1.14,1.879l1.035,1.925l2.203,0.054l1.14-1.877l-1.045-1.928L144.696,1.25z
								 M143.785,3.129l1.023-1.678l1.955,0.054l0.942,1.726l-1.03,1.678l-1.952-0.054L143.785,3.129z"/>
						</g>
					</g>
				</g>
				<g opacity="0.38">
					<g>
						<path fill="#FAFEFF" d="M169.419,7.165l-10.644-4.753l-9.53,6.671l1.087,11.402l10.629,4.746l9.55-6.647L169.419,7.165z
							 M158.893,3.647l9.51,4.25l0.968,10.172l-8.53,5.937l-9.501-4.245l-0.973-10.165L158.893,3.647z"/>
						<g>
							<path fill="#FAFEFF" d="M142.129,26.653l-2.91-1.641l-2.897,1.641v3.296l2.897,1.624l2.91-1.624V26.653z M139.219,25.377
								l2.604,1.461v2.927l-2.604,1.463l-2.579-1.463v-2.927L139.219,25.377z"/>
							<polygon fill="#FAFEFF" points="151.171,20.133 151.062,19.992 141.859,26.624 141.977,26.768 							"/>
						</g>
						<g>
							<path fill="#FAFEFF" d="M127.078,21.071l0.408-3.297l-2.652-2.003l-3.056,1.267l-0.408,3.284l2.647,2.018L127.078,21.071z
								 M127.146,17.92l-0.355,2.935l-2.723,1.13l-2.365-1.79l0.364-2.944l2.714-1.13L127.146,17.92z"/>
							<polygon fill="#FAFEFF" points="136.649,26.813 136.739,26.661 127.005,20.816 126.898,20.972 							"/>
						</g>
						<g>
							<path fill="#FAFEFF" d="M138.998,39.157l-2.188,0.887l-0.351,2.307l1.845,1.436l2.179-0.879l0.354-2.312L138.998,39.157z
								 M137,40.194l1.957-0.799l1.65,1.287l-0.318,2.063l-1.947,0.792l-1.646-1.277L137,40.194z"/>
							<polygon fill="#FAFEFF" points="139.29,31.326 139.156,31.326 138.867,39.288 138.988,39.302 							"/>
						</g>
						<g>
							<path fill="#FAFEFF" d="M130.229,34.314l-2.02-1.218l-2.076,1.108l-0.063,2.336l2.016,1.194l2.081-1.095L130.229,34.314z
								 M128.209,33.351l1.796,1.086l-0.061,2.064l-1.859,0.989l-1.8-1.084l0.063-2.062L128.209,33.351z"/>
							<polygon fill="#FAFEFF" points="136.734,29.875 136.649,29.765 130.039,34.282 130.112,34.392 							"/>
						</g>
						<g>
							<polygon fill="#FAFEFF" points="177.713,0 168.707,7.581 168.986,7.897 178.368,0 							"/>
						</g>
						<g>
							<path fill="#FAFEFF" d="M165.831,44.488l-4.892,3.663l0.688,6.055l5.6,2.369l4.886-3.663l-0.69-6.039L165.831,44.488z
								 M161.54,48.407l4.366-3.268l4.991,2.111l0.614,5.406l-4.375,3.27l-4.982-2.115L161.54,48.407z"/>
							
								<rect x="163.263" y="24.412" transform="matrix(0.9739 -0.2271 0.2271 0.9739 -3.6263 38.0314)" fill="#FAFEFF" width="0.344" height="20.721"/>
						</g>
						<g>
							<polygon fill="#FAFEFF" points="139.125,0 138.74,2.745 135.59,3.978 132.92,1.865 133.183,0 132.822,0 132.536,2.014 
								135.533,4.386 139.063,2.991 139.481,0 							"/>
							<polygon fill="#FAFEFF" points="149.914,9.791 150.03,9.606 138.974,2.699 138.871,2.876 							"/>
						</g>
						<g>
							<path fill="#FAFEFF" d="M187.437,34.192l4.561-2.011l0.029-0.296v-5.002l-3.589-2.61l-4.551,2.003l-0.503,4.967
								L187.437,34.192z M184.327,26.595l4.058-1.799L192,27.431l-0.443,4.432L187.5,33.66l-3.63-2.64L184.327,26.595z"/>
							<polygon fill="#FAFEFF" points="169.303,17.962 169.174,18.193 183.999,26.668 184.137,26.415 							"/>
						</g>
					</g>
					<g>
						<path fill="#FAFEFF" d="M134.532,54.582l-2.728,5.974l3.81,5.375l6.537-0.623l2.718-5.99l-3.816-5.371L134.532,54.582z
							 M132.505,60.489l2.44-5.338l5.822-0.555l3.411,4.797l-2.431,5.352l-5.838,0.547L132.505,60.489z"/>
						<g>
							<path fill="#FAFEFF" d="M145.687,69.921l-0.937,1.635l0.937,1.619h1.882l0.936-1.619l-0.936-1.635H145.687z M144.944,71.556
								l0.842-1.467h1.68l0.839,1.467l-0.839,1.441h-1.68L144.944,71.556z"/>
							<polygon fill="#FAFEFF" points="141.962,64.839 141.869,64.89 145.669,70.071 145.754,70.005 							"/>
						</g>
						<g>
							<path fill="#FAFEFF" d="M142.491,78.386l-1.884-0.234l-1.157,1.49l0.722,1.727l1.896,0.215l1.147-1.494L142.491,78.386z
								 M140.683,78.351l1.685,0.189l0.64,1.527l-1.021,1.34l-1.681-0.191l-0.644-1.557L140.683,78.351z"/>
							<polygon fill="#FAFEFF" points="145.781,72.997 145.687,72.944 142.346,78.437 142.438,78.474 							"/>
						</g>
						<g>
							<path fill="#FAFEFF" d="M152.849,71.681l0.508,1.227l1.322,0.189l0.817-1.02l-0.506-1.246l-1.325-0.189L152.849,71.681z
								 M153.441,72.806l-0.452-1.105l0.729-0.92l1.187,0.168l0.452,1.094l-0.723,0.932L153.441,72.806z"/>
							<polygon fill="#FAFEFF" points="148.365,71.513 148.365,71.591 152.926,71.751 152.926,71.681 							"/>
						</g>
						<g>
							<path fill="#FAFEFF" d="M150.074,76.616l-0.69,1.133l0.627,1.172l1.328,0.012l0.692-1.105l-0.632-1.186L150.074,76.616z
								 M149.527,77.749l0.61-1.01l1.187,0.031l0.568,1.043l-0.615,1.006l-1.184-0.023L149.527,77.749z"/>
							<polygon fill="#FAFEFF" points="147.521,72.952 147.473,72.997 150.062,76.726 150.121,76.683 							"/>
						</g>
						<g>
							<path fill="#FAFEFF" d="M125.381,44.026l1.862-3.883l-2.421-3.564l-4.271,0.321l-1.86,3.883l2.419,3.557L125.381,44.026z
								 M126.776,40.173l-1.653,3.457l-3.816,0.295l-2.161-3.182l1.655-3.453l3.819-0.295L126.776,40.173z"/>
							<polygon fill="#FAFEFF" points="134.761,54.963 134.945,54.811 125.405,43.671 125.221,43.825 							"/>
						</g>
						<g>
							<path fill="#FAFEFF" d="M155.895,56.583l2.115,2.756l3.455-0.4l1.354-3.133l-2.096-2.752l-3.454,0.389L155.895,56.583z
								 M158.144,59.005l-1.867-2.473l1.208-2.799l3.098-0.34l1.869,2.457l-1.211,2.803L158.144,59.005z"/>
							
								<rect x="150.235" y="52.012" transform="matrix(-0.2224 -0.9749 0.9749 -0.2224 127.2936 217.397)" fill="#FAFEFF" width="0.206" height="11.852"/>
						</g>
						<g>
							<path fill="#FAFEFF" d="M132.135,71.644l-2.154-0.309l-1.358,1.691l0.805,1.996l2.159,0.293l1.349-1.684L132.135,71.644z
								 M130.071,71.556l1.925,0.27l0.72,1.764l-1.226,1.514l-1.925-0.264l-0.71-1.779L130.071,71.556z"/>
							<polygon fill="#FAFEFF" points="136.032,65.55 135.923,65.476 131.975,71.69 132.074,71.753 							"/>
						</g>
						<g>
							<path fill="#FAFEFF" d="M122.96,61.038l-1.352-2.486l-2.84-0.139l-1.517,2.369l1.344,2.5l2.85,0.123L122.96,61.038z
								 M121.445,58.808l1.203,2.225l-1.354,2.104l-2.541-0.102l-1.193-2.23l1.337-2.117L121.445,58.808z"/>
							<polygon fill="#FAFEFF" points="132.49,60.425 132.476,60.263 122.771,60.901 122.787,61.056 							"/>
						</g>
						<g>
							<path fill="#FAFEFF" d="M145.473,46.436l2.849,0.269l1.678-2.271l-1.149-2.562l-2.84-0.275l-1.686,2.283L145.473,46.436z
								 M148.19,46.441l-2.536-0.263l-1.03-2.27l1.507-2.039l2.543,0.252l1.023,2.281L148.19,46.441z"/>
							<polygon fill="#FAFEFF" points="140.697,54.634 140.851,54.721 145.696,46.37 145.558,46.296 							"/>
						</g>
					</g>
					<g>
						<polygon fill="#FAFEFF" points="120.153,0 119.629,2.592 114.941,4.131 111.251,0.82 111.417,0 110.886,0 110.683,1.002 
							114.825,4.7 120.079,2.991 120.682,0 						"/>
						<g>
							<path fill="#FAFEFF" d="M123.835,6.125l-0.454,1.51l1.076,1.169l1.549-0.343l0.452-1.527l-1.077-1.162L123.835,6.125z
								 M123.543,7.598l0.416-1.349l1.379-0.318l0.96,1.033l-0.413,1.366l-1.374,0.306L123.543,7.598z"/>
							<polygon fill="#FAFEFF" points="119.818,2.638 119.756,2.699 123.856,6.249 123.91,6.181 							"/>
						</g>
						<g>
							<path fill="#FAFEFF" d="M122.812,13.671l-1.58,0.156l-0.679,1.439l0.927,1.269l1.587-0.16l0.669-1.435L122.812,13.671z
								 M121.326,13.958l1.417-0.131l0.832,1.135l-0.604,1.274l-1.422,0.155l-0.824-1.143L121.326,13.958z"/>
							<polygon fill="#FAFEFF" points="124.499,8.636 124.424,8.624 122.712,13.734 122.787,13.746 							"/>
						</g>
						<g>
							<path fill="#FAFEFF" d="M130.059,6.251l0.646,0.914l1.121-0.1l0.481-0.997l-0.646-0.924l-1.128,0.097L130.059,6.251z
								 M130.749,7.048l-0.578-0.822l0.435-0.885l1.002-0.078l0.574,0.814l-0.424,0.885L130.749,7.048z"/>
							<polygon fill="#FAFEFF" points="126.349,6.934 126.361,6.985 130.134,6.285 130.122,6.227 							"/>
						</g>
						<g>
							<path fill="#FAFEFF" d="M128.702,10.807l-0.351,1.055l0.737,0.849l1.108-0.216l0.346-1.062l-0.732-0.848L128.702,10.807z
								 M128.469,11.848l0.323-0.963l0.975-0.185l0.659,0.753l-0.313,0.938l-0.978,0.192L128.469,11.848z"/>
							<polygon fill="#FAFEFF" points="125.931,8.269 125.885,8.33 128.717,10.885 128.766,10.855 							"/>
						</g>
						<g>
							<path fill="#FAFEFF" d="M113.041,10.046l-1.821,0.161l-0.798,1.624l1.031,1.485l1.816-0.144l0.802-1.644L113.041,10.046z
								 M111.332,10.357l1.631-0.134l0.919,1.33l-0.72,1.449l-1.624,0.139l-0.924-1.308L111.332,10.357z"/>
							<polygon fill="#FAFEFF" points="115.088,4.301 114.98,4.274 112.917,10.122 113.012,10.141 							"/>
						</g>
						<g>
							<path fill="#FAFEFF" d="M103.503,3.04l-1.57-1.797l-2.365,0.416l-0.79,2.239l1.57,1.802l2.365-0.435L103.503,3.04z
								 M101.843,1.493l1.407,1.597l-0.707,1.979l-2.11,0.384L99.03,3.844l0.702-1.994L101.843,1.493z"/>
							<polygon fill="#FAFEFF" points="111.215,0.773 111.166,0.649 103.328,2.955 103.365,3.09 							"/>
						</g>
					</g>
					<g>
						<path fill="#FAFEFF" d="M98.118,26.563l-0.744,3.623l2.771,2.482l3.511-1.15l0.734-3.632l-2.77-2.465L98.118,26.563z
							 M97.754,30.059l0.658-3.231l3.129-1.019l2.473,2.217l-0.656,3.224l-3.131,1.016L97.754,30.059z"/>
						<g>
							<path fill="#FAFEFF" d="M106.18,33.599l-0.304,1.023l0.712,0.785l1.039-0.238l0.311-1.016l-0.729-0.778L106.18,33.599z
								 M105.98,34.601l0.275-0.909l0.921-0.209l0.646,0.7l-0.279,0.909l-0.919,0.194L105.98,34.601z"/>
							<polygon fill="#FAFEFF" points="103.493,31.275 103.445,31.326 106.188,33.699 106.222,33.66 							"/>
						</g>
						<g>
							<path fill="#FAFEFF" d="M105.494,38.648l-1.067,0.114l-0.439,0.955l0.615,0.855l1.064-0.109l0.447-0.957L105.494,38.648z
								 M104.495,38.851l0.953-0.096l0.545,0.764l-0.39,0.863l-0.958,0.094l-0.552-0.765L104.495,38.851z"/>
							<polygon fill="#FAFEFF" points="106.625,35.286 106.562,35.267 105.419,38.697 105.478,38.71 							"/>
						</g>
						<g>
							<path fill="#FAFEFF" d="M110.337,33.691l0.426,0.615l0.759-0.054l0.318-0.671l-0.431-0.623l-0.759,0.061L110.337,33.691z
								 M110.804,34.229l-0.392-0.544l0.292-0.601l0.669-0.046l0.389,0.544l-0.289,0.601L110.804,34.229z"/>
							<polygon fill="#FAFEFF" points="107.851,34.153 107.859,34.192 110.386,33.721 110.386,33.684 							"/>
						</g>
						<g>
							<path fill="#FAFEFF" d="M109.426,36.747l-0.229,0.715l0.493,0.547l0.737-0.146l0.232-0.7l-0.498-0.562L109.426,36.747z
								 M109.272,37.45l0.216-0.656l0.647-0.117l0.447,0.504l-0.207,0.629l-0.659,0.131L109.272,37.45z"/>
							<polygon fill="#FAFEFF" points="107.573,35.053 107.544,35.084 109.438,36.794 109.467,36.778 							"/>
						</g>
						<g>
							<path fill="#FAFEFF" d="M91.764,21.9l0.524-2.363l-1.776-1.639l-2.311,0.7l-0.524,2.346l1.779,1.668L91.764,21.9z
								 M92.05,19.62l-0.479,2.105l-2.064,0.627l-1.58-1.483l0.472-2.093l2.055-0.632L92.05,19.62z"/>
							<polygon fill="#FAFEFF" points="98.293,26.755 98.373,26.639 91.727,21.718 91.649,21.811 							"/>
						</g>
						<g>
							<path fill="#FAFEFF" d="M110.108,25.012l1.503,1.264l1.845-0.646l0.353-1.894l-1.507-1.257l-1.841,0.649L110.108,25.012z
								 M111.646,26.075l-1.34-1.131l0.309-1.68l1.655-0.569l1.34,1.116l-0.315,1.688L111.646,26.075z"/>
							<polygon fill="#FAFEFF" points="104.184,27.842 104.237,27.932 110.262,25.068 110.211,24.968 							"/>
						</g>
						<g>
							<path fill="#FAFEFF" d="M98.957,36.239l-1.223,0.107l-0.532,1.086l0.692,0.994l1.221-0.102l0.522-1.102L98.957,36.239z
								 M97.807,36.438l1.097-0.085l0.615,0.888l-0.477,0.97l-1.089,0.085l-0.617-0.87L97.807,36.438z"/>
							
								<rect x="99.561" y="32.274" transform="matrix(0.952 0.306 -0.306 0.952 15.2879 -28.8299)" fill="#FAFEFF" width="0.072" height="4.143"/>
						</g>
						<g>
							<path fill="#FAFEFF" d="M92.575,31.542l-1.05-1.191l-1.583,0.284l-0.53,1.479l1.051,1.206l1.587-0.282L92.575,31.542z
								 M91.469,30.511l0.937,1.077l-0.465,1.333l-1.419,0.238l-0.943-1.06l0.48-1.333L91.469,30.511z"/>
							<polygon fill="#FAFEFF" points="97.734,30.035 97.71,29.95 92.459,31.491 92.488,31.588 							"/>
						</g>
						<g>
							<path fill="#FAFEFF" d="M103.1,20.738l1.595-0.197l0.642-1.474l-0.955-1.247l-1.602,0.194l-0.638,1.454L103.1,20.738z
								 M104.588,20.4l-1.418,0.177l-0.855-1.118l0.574-1.308l1.422-0.177l0.846,1.118L104.588,20.4z"/>
							<polygon fill="#FAFEFF" points="101.51,25.832 101.6,25.863 103.217,20.677 103.121,20.648 							"/>
						</g>
					</g>
					<g>
						<path fill="#FAFEFF" d="M80.733,26.563l-0.817,2.108l1.428,1.765l2.236-0.34l0.807-2.11l-1.417-1.772L80.733,26.563z
							 M80.159,28.625l0.732-1.87l1.988-0.323l1.265,1.592l-0.723,1.877l-1.993,0.301L80.159,28.625z"/>
						<g>
							<path fill="#FAFEFF" d="M84.878,31.613l-0.291,0.576l0.354,0.54l0.651-0.034l0.29-0.581l-0.355-0.55L84.878,31.613z
								 M84.657,32.182l0.263-0.516l0.576-0.036l0.315,0.484l-0.258,0.522l-0.581,0.032L84.657,32.182z"/>
							<polygon fill="#FAFEFF" points="83.497,29.935 83.473,29.964 84.878,31.668 84.902,31.642 							"/>
						</g>
						<g>
							<path fill="#FAFEFF" d="M83.957,34.583l-0.651-0.039l-0.372,0.525l0.287,0.583l0.653,0.034l0.36-0.528L83.957,34.583z
								 M83.337,34.601l0.573,0.037l0.263,0.51l-0.333,0.484L83.257,35.6l-0.253-0.515L83.337,34.601z"/>
							<polygon fill="#FAFEFF" points="84.973,32.668 84.939,32.646 83.903,34.601 83.938,34.623 							"/>
						</g>
						<g>
							<path fill="#FAFEFF" d="M87.38,32.072l0.192,0.418l0.462,0.039l0.265-0.37l-0.197-0.416l-0.462-0.042L87.38,32.072z
								 M87.604,32.449l-0.18-0.377l0.238-0.328l0.408,0.036l0.18,0.377l-0.233,0.333L87.604,32.449z"/>
							<rect x="85.836" y="32.086" fill="#FAFEFF" width="1.567" height="0.031"/>
						</g>
						<g>
							<path fill="#FAFEFF" d="M86.521,33.823l-0.209,0.406l0.241,0.394l0.459-0.022l0.209-0.408l-0.238-0.37H86.521z
								 M86.356,34.229l0.197-0.36l0.405-0.015l0.214,0.346l-0.189,0.362l-0.408,0.022L86.356,34.229z"/>
							<polygon fill="#FAFEFF" points="85.576,32.612 85.559,32.636 86.521,33.852 86.536,33.854 							"/>
						</g>
						<g>
							<path fill="#FAFEFF" d="M77.383,23.104l0.555-1.371l-0.899-1.169l-1.469,0.192l-0.557,1.369l0.902,1.182L77.383,23.104z
								 M77.787,21.757l-0.499,1.223l-1.311,0.17l-0.805-1.038l0.499-1.245l1.303-0.168L77.787,21.757z"/>
							<polygon fill="#FAFEFF" points="80.825,26.689 80.892,26.639 77.378,22.989 77.314,23.041 							"/>
						</g>
						<g>
							<path fill="#FAFEFF" d="M88.129,26.828l0.775,0.892l1.182-0.197l0.398-1.108l-0.771-0.902l-1.182,0.194L88.129,26.828z
								 M88.95,27.613l-0.7-0.805l0.365-0.999l1.058-0.18l0.683,0.802l-0.354,0.999L88.95,27.613z"/>
							<polygon fill="#FAFEFF" points="84.266,27.917 84.282,27.985 88.209,26.86 88.188,26.809 							"/>
						</g>
						<g>
							<path fill="#FAFEFF" d="M80.257,32.457l-0.744-0.051l-0.438,0.613l0.321,0.666l0.741,0.051l0.435-0.605L80.257,32.457z
								 M79.544,32.49l0.664,0.046l0.279,0.593l-0.382,0.537l-0.668-0.037l-0.279-0.61L79.544,32.49z"/>
							<polygon fill="#FAFEFF" points="81.475,30.297 81.438,30.273 80.201,32.49 80.237,32.507 							"/>
						</g>
						<g>
							<path fill="#FAFEFF" d="M76.882,29.004l-0.505-0.824l-0.982,0.005l-0.472,0.848l0.508,0.832l0.979-0.024L76.882,29.004z
								 M76.323,28.263l0.452,0.741l-0.418,0.761h-0.873l-0.457-0.732l0.418-0.753L76.323,28.263z"/>
							<polygon fill="#FAFEFF" points="80.154,28.603 80.14,28.554 76.819,28.963 76.829,29.009 							"/>
						</g>
						<g>
							<path fill="#FAFEFF" d="M84.339,23.537l0.978,0.041l0.534-0.812L85.403,21.9l-0.978-0.037l-0.537,0.81L84.339,23.537z
								 M85.272,23.471l-0.88-0.022l-0.399-0.753l0.475-0.739l0.882,0.029l0.396,0.766L85.272,23.471z"/>
							<polygon fill="#FAFEFF" points="82.855,26.458 82.909,26.476 84.414,23.505 84.358,23.471 							"/>
						</g>
					</g>
				</g>
				<g opacity="0.38">
					<g>
						<polygon fill="#FAFEFF" points="76.158,0 77.458,1.829 75.915,5.232 72.217,5.565 70.056,2.519 71.203,0 70.779,0 69.61,2.57 
							72.037,5.979 76.18,5.575 77.906,1.79 76.636,0 						"/>
						<g>
							<path fill="#FAFEFF" d="M78.429,8.519L77.83,9.56l0.599,1.031h1.188l0.596-1.031l-0.596-1.041H78.429z M77.962,9.56
								l0.532-0.933l1.064,0.002l0.527,0.931l-0.527,0.917h-1.064L77.962,9.56z"/>
							<polygon fill="#FAFEFF" points="76.062,5.286 76.01,5.325 78.414,8.624 78.473,8.573 							"/>
						</g>
						<g>
							<path fill="#FAFEFF" d="M76.396,13.895l-1.194-0.148l-0.731,0.948l0.452,1.084l1.206,0.148l0.731-0.945L76.396,13.895z
								 M75.256,13.863l1.062,0.141l0.413,0.968l-0.656,0.838l-1.067-0.129l-0.413-0.97L75.256,13.863z"/>
							
								<rect x="77.363" y="10.162" transform="matrix(0.8643 0.5029 -0.5029 0.8643 16.6339 -37.266)" fill="#FAFEFF" width="0.062" height="4.076"/>
						</g>
						<g>
							<path fill="#FAFEFF" d="M82.977,9.638l0.324,0.785l0.834,0.117l0.522-0.646l-0.318-0.788l-0.842-0.124L82.977,9.638z
								 M83.35,10.34l-0.287-0.688l0.467-0.586l0.751,0.114l0.287,0.686l-0.465,0.588L83.35,10.34z"/>
							<rect x="80.127" y="9.588" fill="#FAFEFF" width="2.899" height="0.041"/>
						</g>
						<g>
							<path fill="#FAFEFF" d="M81.22,12.771l-0.445,0.724l0.398,0.739l0.844,0.022l0.45-0.732l-0.408-0.739L81.22,12.771z
								 M80.864,13.493l0.39-0.644l0.756,0.022l0.357,0.654l-0.39,0.652l-0.753-0.022L80.864,13.493z"/>
							<polygon fill="#FAFEFF" points="79.601,10.445 79.562,10.476 81.21,12.842 81.241,12.8 							"/>
						</g>
						<g>
							<polygon fill="#FAFEFF" points="88.893,0 88.299,1.367 86.337,1.583 85.141,0.02 85.149,0 84.935,0 84.912,0.052 
								86.244,1.797 88.447,1.552 89.121,0 							"/>
							<polygon fill="#FAFEFF" points="77.691,1.676 77.724,1.797 85.068,0.134 85.034,0.02 							"/>
						</g>
						<g>
							<path fill="#FAFEFF" d="M69.824,9.613l-1.376-0.199l-0.858,1.074l0.509,1.257l1.371,0.192l0.868-1.067L69.824,9.613z
								 M68.512,9.56l1.218,0.175l0.46,1.121l-0.783,0.953l-1.223-0.17l-0.445-1.121L68.512,9.56z"/>
							<polygon fill="#FAFEFF" points="72.297,5.74 72.231,5.699 69.723,9.638 69.781,9.674 							"/>
						</g>
						<g>
							<path fill="#FAFEFF" d="M63.997,2.876l-0.858-1.585l-1.811-0.078l-0.961,1.5l0.847,1.587l1.818,0.085L63.997,2.876z
								 M63.032,1.452l0.763,1.425l-0.853,1.33l-1.614-0.066l-0.764-1.427l0.855-1.325L63.032,1.452z"/>
							<polygon fill="#FAFEFF" points="70.041,2.49 70.041,2.383 63.881,2.794 63.885,2.891 							"/>
						</g>
					</g>
				</g>
			</g>
		</g>
	</g>
	<g>
		<path fill="#0782B1" d="M15.687,85.456v5.048h-0.151v-5.342h0.113l4.085,5.123V85.17h0.15v5.334h-0.173L15.687,85.456z"/>
		<path fill="#0782B1" d="M20.728,88.525c0-1.098,0.82-1.986,1.843-1.986c1.039,0,1.874,0.896,1.881,2.017v0.082h-3.574
			c0.075,1.009,0.828,1.791,1.738,1.791c0.602,0,1.182-0.339,1.399-0.82l0.144,0.038c-0.211,0.535-0.873,0.933-1.55,0.933
			C21.578,90.579,20.728,89.646,20.728,88.525z M24.294,88.488c-0.068-1.045-0.79-1.798-1.715-1.798s-1.647,0.767-1.7,1.798H24.294z
			"/>
		<path fill="#0782B1" d="M30.75,90.504h-0.151V88.33c0-1.114-0.331-1.64-1.045-1.64c-0.745,0-1.324,0.563-1.535,1.354v2.46h-0.15
			V88.33c0-1.129-0.323-1.64-1.038-1.64c-0.73,0-1.316,0.541-1.542,1.347v2.467h-0.15V86.6h0.15v1.009
			c0.339-0.679,0.895-1.069,1.512-1.069c0.655,0,1.114,0.443,1.189,1.137c0.39-0.761,0.902-1.137,1.564-1.137
			c0.812,0,1.196,0.58,1.196,1.791V90.504z"/>
		<path fill="#0782B1" d="M31.699,88.789V86.6h0.15v2.189c0,1.104,0.361,1.64,1.106,1.64c0.752,0,1.467-0.564,1.701-1.347V86.6h0.15
			v3.604c0,0.09,0.045,0.15,0.121,0.15v0.15c-0.061,0-0.083,0-0.105-0.015c-0.098-0.038-0.165-0.158-0.165-0.286v-0.692
			c-0.339,0.655-1.001,1.068-1.701,1.068C32.127,90.579,31.699,89.97,31.699,88.789z"/>
		<path fill="#0782B1" d="M35.507,89.947l0.113-0.098c0.398,0.391,0.82,0.579,1.377,0.579c0.766,0,1.301-0.354,1.301-0.947
			c0-0.564-0.489-0.708-1.362-0.911c-0.834-0.196-1.249-0.301-1.249-0.925c0-0.775,0.64-1.106,1.377-1.106
			c0.632,0,1.098,0.24,1.271,0.564l-0.135,0.06c-0.188-0.309-0.669-0.473-1.167-0.473c-0.647,0-1.196,0.277-1.196,0.933
			c0,0.519,0.339,0.616,1.106,0.797c0.933,0.218,1.505,0.361,1.505,1.039c0,0.684-0.58,1.12-1.452,1.12
			C36.401,90.579,35.898,90.376,35.507,89.947z"/>
		<path fill="#0782B1" d="M42.667,90.654h-2.475v-5.341h2.363c0.752,0,1.218,0.691,1.218,1.36c0,0.542-0.301,1.031-0.767,1.242
			c0.609,0.181,0.992,0.744,0.992,1.354C43.998,90.007,43.396,90.654,42.667,90.654z M40.342,85.463v2.424h2.167
			c0.654,0,1.112-0.618,1.112-1.213c0-0.639-0.436-1.211-1.067-1.211H40.342z M42.719,88.036h-2.377v2.467h2.324
			c0.663,0,1.181-0.616,1.181-1.233C43.848,88.631,43.366,88.036,42.719,88.036z"/>
		<path fill="#0782B1" d="M44.812,85.741v-0.579h0.15v0.579H44.812z M44.812,90.654V86.75h0.15v3.904H44.812z"/>
		<path fill="#0782B1" d="M45.731,88.713c0-1.098,0.851-2.023,1.858-2.023c1.008,0,1.858,0.926,1.858,2.023
			c0,1.091-0.835,2.017-1.858,2.017C46.559,90.729,45.731,89.804,45.731,88.713z M47.582,90.579c0.933,0,1.715-0.857,1.715-1.874
			c0-1.007-0.782-1.865-1.708-1.865s-1.708,0.865-1.708,1.888C45.881,89.737,46.649,90.579,47.582,90.579z"/>
		<path fill="#0782B1" d="M49.87,90.099l0.113-0.1c0.398,0.392,0.82,0.58,1.377,0.58c0.767,0,1.301-0.354,1.301-0.948
			c0-0.564-0.488-0.707-1.362-0.911c-0.835-0.195-1.248-0.3-1.248-0.925c0-0.774,0.64-1.105,1.376-1.105
			c0.632,0,1.099,0.241,1.271,0.564l-0.135,0.06c-0.188-0.308-0.669-0.474-1.167-0.474c-0.647,0-1.196,0.278-1.196,0.933
			c0,0.52,0.339,0.617,1.106,0.798c0.933,0.219,1.505,0.361,1.505,1.037c0,0.687-0.58,1.122-1.452,1.122
			C50.765,90.729,50.262,90.525,49.87,90.099z"/>
		<path fill="#0782B1" d="M55.16,86.689c0.655,0,1.204,0.323,1.466,0.873l-0.15,0.053c-0.256-0.482-0.768-0.775-1.339-0.775
			c-0.955,0-1.707,0.812-1.707,1.844c0,1.03,0.782,1.896,1.714,1.896c0.61,0,1.264-0.392,1.385-0.819l0.15,0.044
			c-0.173,0.526-0.835,0.926-1.512,0.926c-1.031,0-1.888-0.926-1.888-2.046C53.28,87.562,54.1,86.689,55.16,86.689z"/>
		<path fill="#0782B1" d="M57.403,85.741v-0.579h0.151v0.579H57.403z M57.403,90.654V86.75h0.151v3.904H57.403z"/>
		<path fill="#0782B1" d="M58.323,88.676c0-1.1,0.82-1.986,1.843-1.986c1.038,0,1.873,0.895,1.881,2.016v0.084h-3.573
			c0.075,1.007,0.828,1.79,1.738,1.79c0.602,0,1.181-0.339,1.399-0.819l0.143,0.036c-0.21,0.534-0.872,0.934-1.55,0.934
			C59.172,90.729,58.323,89.796,58.323,88.676z M61.889,88.638c-0.068-1.046-0.79-1.798-1.716-1.798c-0.925,0-1.647,0.768-1.7,1.798
			H61.889z"/>
		<path fill="#0782B1" d="M65.659,90.654h-0.15V88.48c0-1.136-0.302-1.641-1-1.641c-0.752,0-1.513,0.579-1.73,1.347v2.468h-0.151
			V86.75h0.151v1.008c0.323-0.632,1.023-1.068,1.723-1.068c0.797,0,1.158,0.564,1.158,1.791V90.654z"/>
		<path fill="#0782B1" d="M68.159,86.689c0.654,0,1.204,0.323,1.467,0.873l-0.15,0.053c-0.257-0.482-0.768-0.775-1.339-0.775
			c-0.955,0-1.708,0.812-1.708,1.844c0,1.03,0.782,1.896,1.715,1.896c0.609,0,1.264-0.392,1.384-0.819l0.15,0.044
			c-0.172,0.526-0.835,0.926-1.512,0.926c-1.03,0-1.888-0.926-1.888-2.046C66.278,87.562,67.098,86.689,68.159,86.689z"/>
		<path fill="#0782B1" d="M70.087,88.676c0-1.1,0.819-1.986,1.843-1.986c1.038,0,1.873,0.895,1.88,2.016v0.084h-3.573
			c0.075,1.007,0.828,1.79,1.738,1.79c0.602,0,1.181-0.339,1.399-0.819l0.142,0.036c-0.21,0.534-0.872,0.934-1.549,0.934
			C70.936,90.729,70.087,89.796,70.087,88.676z M73.652,88.638c-0.067-1.046-0.791-1.798-1.715-1.798
			c-0.925,0-1.647,0.768-1.7,1.798H73.652z"/>
		<path fill="#0782B1" d="M75.669,90.613v-5.334h0.151v5.334H75.669z"/>
		<path fill="#0782B1" d="M80.027,90.613h-0.15v-2.174c0-1.136-0.301-1.64-1.001-1.64c-0.752,0-1.512,0.579-1.73,1.347v2.467h-0.15
			V86.71h0.15v1.008c0.323-0.632,1.023-1.068,1.723-1.068c0.798,0,1.159,0.564,1.159,1.79V90.613z"/>
		<path fill="#0782B1" d="M82.631,86.649c0.654,0,1.204,0.322,1.467,0.872l-0.151,0.053c-0.255-0.48-0.767-0.774-1.339-0.774
			c-0.955,0-1.708,0.812-1.708,1.843c0,1.031,0.782,1.896,1.715,1.896c0.609,0,1.264-0.392,1.384-0.821l0.15,0.046
			c-0.173,0.526-0.835,0.926-1.512,0.926c-1.031,0-1.889-0.926-1.889-2.047S81.57,86.649,82.631,86.649z"/>
		<path fill="#0782B1" d="M85,90.613v-0.481h0.151v0.481H85z"/>
	</g>
</g>
</svg>
